<mxfile host="app.diagrams.net" modified="2023-11-28T03:06:55.631Z" agent="Mozilla/5.0 (Windows NT 10.0; Win64; x64) AppleWebKit/537.36 (KHTML, like Gecko) Chrome/119.0.0.0 Safari/537.36" version="22.1.4" etag="Vu0SYb78CNxsfc-ek3ay" type="github">
  <diagram name="Trang-1" id="Oq4RGoUHoJdegi2gag3B">
    <mxGraphModel>
      <root>
        <mxCell id="0" />
        <mxCell id="1" parent="0" />
      </root>
    </mxGraphModel>
  </diagram>
</mxfile>
